<svg width="24" height="24" viewBox="0 0 24 24" fill="none" xmlns="http://www.w3.org/2000/svg">
<path d="M16.7155 17.9989C15.471 17.2597 14.446 16.1339 13.7066 14.8259C12.885 13.3728 12.4121 11.6854 12.3799 10.0494C12.3757 9.81272 12.5366 9.61192 12.7539 9.56494C13.4929 9.40259 14.2175 9.17853 14.9189 8.89506C15.5384 8.64474 16.1393 8.34884 16.7155 8.00963V5.72803C16.7155 5.52515 16.6301 5.33932 16.4924 5.20437C16.3485 5.06321 16.1473 4.97525 15.9249 4.97525H5.73847C5.51579 4.97525 5.31481 5.06321 5.17091 5.20437C5.03305 5.33932 4.94756 5.52515 4.94756 5.72803V20.2725C4.94756 20.4753 5.03305 20.6612 5.17091 20.7961C5.31481 20.9373 5.51579 21.0252 5.73847 21.0252H15.9249C16.1473 21.0252 16.3485 20.9373 16.4924 20.7961C16.6301 20.6612 16.7155 20.4753 16.7155 20.2725V17.9989ZM15.4155 13.4737C15.2438 13.2708 15.2647 12.9629 15.4618 12.7863C15.659 12.6097 15.9582 12.6311 16.1299 12.834L17.0219 13.8889L18.6874 10.7619C18.813 10.5266 19.1008 10.4405 19.3295 10.5696C19.5582 10.6988 19.6419 10.995 19.5164 11.2303L17.5373 14.9463C17.5103 15.0044 17.4715 15.058 17.4212 15.1032C17.224 15.2798 16.9248 15.2584 16.7531 15.0555L15.4155 13.4737ZM7.01322 7.73422C6.7516 7.73422 6.53944 7.51592 6.53944 7.24672C6.53944 6.97752 6.7516 6.75922 7.01322 6.75922H14.6497C14.9113 6.75922 15.1234 6.97752 15.1234 7.24672C15.1234 7.51592 14.9113 7.73422 14.6497 7.73422H7.01322ZM7.01322 19.241C6.7516 19.241 6.53944 19.0227 6.53944 18.7535C6.53944 18.4843 6.7516 18.266 7.01322 18.266H14.6497C14.9113 18.266 15.1234 18.4843 15.1234 18.7535C15.1234 19.0227 14.9113 19.241 14.6497 19.241H7.01322ZM7.01322 16.3642C6.7516 16.3642 6.53944 16.1459 6.53944 15.8767C6.53944 15.6075 6.7516 15.3892 7.01322 15.3892H12.4312C12.6928 15.3892 12.9049 15.6075 12.9049 15.8767C12.9049 16.1459 12.6928 16.3642 12.4312 16.3642H7.01322ZM7.01322 13.4877C6.7516 13.4877 6.53944 13.2694 6.53944 13.0002C6.53944 12.731 6.7516 12.5127 7.01322 12.5127H11.1389C11.4006 12.5127 11.6127 12.731 11.6127 13.0002C11.6127 13.2694 11.4006 13.4877 11.1389 13.4877H7.01322ZM7.01322 10.6111C6.7516 10.6111 6.53944 10.3928 6.53944 10.1236C6.53944 9.8544 6.7516 9.6361 7.01322 9.6361H10.7936C11.0552 9.6361 11.2674 9.8544 11.2674 10.1236C11.2674 10.3928 11.0552 10.6111 10.7936 10.6111H7.01322ZM17.6631 8.00963C18.2396 8.34861 18.8407 8.64474 19.46 8.89506C20.1616 9.17853 20.8863 9.40282 21.6252 9.56402C21.862 9.61537 22.0193 9.84151 21.9981 10.0835C21.9598 11.7088 21.488 13.3832 20.6721 14.8261C19.9326 16.1341 18.9074 17.2599 17.6631 17.9987V20.2725C17.6631 20.7514 17.4639 21.1867 17.1437 21.5008C16.8297 21.8087 16.3978 22.0002 15.9249 22.0002H5.73847C5.26536 22.0002 4.83365 21.8087 4.51966 21.5008C4.19896 21.1867 4 20.7519 4 20.2725V5.72803C4 5.24859 4.19896 4.81382 4.51966 4.49972C4.83365 4.19184 5.26536 4.00024 5.73847 4.00024H15.9249C16.3978 4.00024 16.8297 4.19184 17.1437 4.49972C17.4639 4.81382 17.6631 5.24905 17.6631 5.72803V8.00963ZM14.5243 14.3386C15.1852 15.508 16.0938 16.5095 17.1893 17.1593C18.2848 16.5095 19.1934 15.508 19.8543 14.3389C20.532 13.1403 20.9473 11.7708 21.0382 10.4248C20.3834 10.2625 19.7409 10.0541 19.1158 9.80144C18.4547 9.53431 17.8106 9.2163 17.1893 8.85038C16.5685 9.2163 15.9244 9.53431 15.2631 9.80144C14.6383 10.0541 13.9957 10.2625 13.3407 10.4248C13.4313 11.7706 13.8467 13.14 14.5243 14.3386Z" fill="#111111"/>
</svg>
