<svg width="47" height="47" viewBox="0 0 47 47" fill="none" xmlns="http://www.w3.org/2000/svg">
<mask id="mask0_2535_5715" style="mask-type:luminance" maskUnits="userSpaceOnUse" x="6" y="6" width="34" height="34">
<path d="M34.57 34.5705C40.9341 28.2063 40.9341 17.8879 34.57 11.5238C28.2058 5.15962 17.8875 5.15962 11.5233 11.5238C5.15917 17.8879 5.15917 28.2063 11.5233 34.5705C17.8875 40.9346 28.2058 40.9346 34.57 34.5705Z" fill="white"/>
</mask>
<g mask="url(#mask0_2535_5715)">
<path d="M39.3424 6.75122H6.75049V39.3432H39.3424V6.75122Z" fill="#F51D21"/>
</g>
<mask id="mask1_2535_5715" style="mask-type:luminance" maskUnits="userSpaceOnUse" x="6" y="6" width="34" height="34">
<path d="M39.3429 6.75H6.75098V39.342H39.3429V6.75Z" fill="white"/>
</mask>
<g mask="url(#mask1_2535_5715)">
<path d="M15.6693 30.5337C15.6876 30.6261 15.7272 30.7128 15.785 30.7871C15.8428 30.8614 15.9171 30.9211 16.0021 30.9615C16.1568 31.0415 16.3326 31.0708 16.5049 31.0454C16.6771 31.0199 16.8369 30.9409 16.9618 30.8195C18.8977 28.7647 20.946 27.7295 23.0377 27.7396C26.49 27.759 29.0924 30.6499 29.1219 30.6775C29.2436 30.8022 29.4018 30.885 29.5737 30.9138C29.7455 30.9426 29.9221 30.9161 30.0778 30.8379C30.1654 30.7988 30.2427 30.7399 30.3036 30.6658C30.3646 30.5918 30.4075 30.5046 30.4291 30.4111C30.4443 30.3295 30.4405 30.2454 30.4179 30.1655C30.3954 30.0855 30.3547 30.0119 30.2991 29.9502C29.7025 29.3091 29.0323 28.7407 28.3024 28.2568C26.7663 27.177 24.9459 26.5742 23.069 26.5237C22.9953 26.5237 22.9215 26.5237 22.8478 26.5237C20.3588 26.5753 17.9942 27.7673 15.8242 30.0664C15.7645 30.1277 15.7198 30.2021 15.6937 30.2837C15.6677 30.3653 15.6609 30.4519 15.674 30.5365" fill="white"/>
<path d="M19.2136 19.8861C19.3486 19.4074 19.3298 18.8984 19.16 18.431C18.9901 17.9636 18.6778 17.5613 18.267 17.281C17.8562 17.0007 17.3678 16.8564 16.8706 16.8686C16.3734 16.8809 15.8926 17.0489 15.4961 17.3491C15.0996 17.6493 14.8074 18.0664 14.6607 18.5416C14.5141 19.0168 14.5204 19.5261 14.6787 19.9975C14.8371 20.469 15.1395 20.8788 15.5433 21.1691C15.9471 21.4594 16.4319 21.6155 16.9292 21.6154C17.4597 21.6785 17.994 21.5336 18.4199 21.2111C18.8458 20.8887 19.1303 20.4137 19.2136 19.8861Z" fill="white"/>
<path d="M26.8792 19.8353C26.7442 19.3566 26.7629 18.8477 26.9328 18.3802C27.1026 17.9128 27.4149 17.5105 27.8257 17.2302C28.2365 16.9499 28.725 16.8056 29.2221 16.8179C29.7193 16.8301 30.2001 16.9982 30.5966 17.2983C30.9931 17.5985 31.2853 18.0156 31.432 18.4908C31.5786 18.9661 31.5723 19.4753 31.414 19.9468C31.2556 20.4182 30.9532 20.828 30.5494 21.1183C30.1456 21.4086 29.6608 21.5647 29.1635 21.5647C28.633 21.6277 28.0987 21.4828 27.6728 21.1603C27.2469 20.8379 26.9625 20.363 26.8792 19.8353Z" fill="white"/>
</g>
</svg>
