<svg width="18" height="18" viewBox="0 0 18 18" fill="none" xmlns="http://www.w3.org/2000/svg">
<path d="M13.2159 3.0492V2.25H12.3404V3.0492H5.72867V2.25H4.85324V3.0492H2.25V3.87L2.27304 13.9788C2.27304 14.454 2.48038 14.886 2.82594 15.2316C3.19454 15.5556 3.65529 15.75 4.16212 15.75H4.73805H13.2619H13.8379C14.3447 15.75 14.8055 15.5772 15.1741 15.2316C15.5427 14.9076 15.727 14.454 15.727 13.9788L15.75 3.87V3.0492H13.2159ZM14.552 14.6484C14.3677 14.8212 14.1143 14.9292 13.8379 14.9292H13.2619H4.73805H4.16212C3.88567 14.9292 3.63225 14.8212 3.44795 14.6484C3.26365 14.4756 3.14846 14.238 3.14846 13.9788L3.12543 6.3756H14.8746L14.8515 13.9572C14.8515 14.2164 14.7594 14.454 14.552 14.6484ZM14.8746 5.5548H3.12543V3.87H4.85324V4.6692H5.72867V3.87H12.3404V4.6692H13.2159V3.87H14.8976L14.8746 5.5548Z" fill="#111111"/>
<path d="M6.46579 7.95312H4.94531V8.77392H6.46579V7.95312Z" fill="#111111"/>
<path d="M6.46579 10.1992H4.94531V11.02H6.46579V10.1992Z" fill="#111111"/>
<path d="M6.46579 12.4453H4.94531V13.2661H6.46579V12.4453Z" fill="#111111"/>
<path d="M9.76071 7.95312H8.24023V8.77392H9.76071V7.95312Z" fill="#111111"/>
<path d="M9.76071 10.1992H8.24023V11.02H9.76071V10.1992Z" fill="#111111"/>
<path d="M9.76071 12.4453H8.24023V13.2661H9.76071V12.4453Z" fill="#111111"/>
<path d="M13.0537 7.95312H11.5332V8.77392H13.0537V7.95312Z" fill="#111111"/>
<path d="M13.0537 10.1992H11.5332V11.02H13.0537V10.1992Z" fill="#111111"/>
<path d="M13.0537 12.4453H11.5332V13.2661H13.0537V12.4453Z" fill="#111111"/>
</svg>
