<svg width="40" height="40" viewBox="0 0 40 40" fill="none" xmlns="http://www.w3.org/2000/svg">
<rect width="40" height="40" rx="20" fill="white"/>
<path d="M24.6698 30.0015C22.0201 30.0015 18.3771 28.1384 15.1184 24.8819C10.5314 20.295 8.70879 14.9327 10.9674 12.6718L13.044 10.5952C13.232 10.406 13.4556 10.2558 13.7019 10.1533C13.9481 10.0508 14.2122 9.99805 14.479 9.99805C14.7457 9.99805 15.0098 10.0508 15.2561 10.1533C15.5024 10.2558 15.726 10.406 15.914 10.5952L17.9905 12.6696C18.1777 12.8582 18.3246 13.083 18.422 13.3303C18.5794 13.7001 18.622 14.1087 18.5443 14.5031C18.4665 14.8974 18.272 15.2593 17.9861 15.5417L16.1319 17.3958C16.2848 18.6184 17.1747 20.1624 18.5052 21.4928C19.8357 22.8233 21.3819 23.7133 22.6045 23.8661L24.4586 22.012C24.7429 21.7237 25.1076 21.528 25.5051 21.4506C25.9025 21.3732 26.314 21.4177 26.6857 21.5782C26.9259 21.6769 27.1437 21.8229 27.3262 22.0075L29.4028 24.0841C29.5921 24.2721 29.7423 24.4957 29.8447 24.7419C29.9472 24.9882 30 25.2523 30 25.5191C30 25.7858 29.9472 26.0499 29.8447 26.2962C29.7423 26.5425 29.5921 26.766 29.4028 26.954L27.3285 29.0306C26.6722 29.6891 25.7553 30.0015 24.6698 30.0015ZM14.4779 11.1234C14.359 11.1227 14.2412 11.1456 14.1313 11.1907C14.0213 11.2358 13.9214 11.3023 13.8374 11.3863L11.7608 13.4606C10.0078 15.2136 11.9091 20.077 15.9117 24.0819C19.9143 28.0867 24.7799 29.9925 26.5329 28.2395L28.6073 26.1629C28.6922 26.0793 28.7596 25.9796 28.8057 25.8696C28.8517 25.7597 28.8754 25.6416 28.8754 25.5224C28.8754 25.4032 28.8517 25.2852 28.8057 25.1752C28.7596 25.0653 28.6922 24.9656 28.6073 24.8819L26.5329 22.8053C26.4543 22.7251 26.3603 22.6616 26.2565 22.6188C26.0896 22.5458 25.9046 22.5245 25.7255 22.5578C25.5464 22.5911 25.3814 22.6773 25.2519 22.8053L23.2135 24.8437C23.1581 24.8986 23.092 24.9414 23.0193 24.9697C22.9466 24.9979 22.8689 25.0109 22.791 25.0078C21.2448 24.9493 19.3457 23.92 17.7119 22.2884C16.078 20.6568 15.0509 18.7555 14.9903 17.2093C14.9868 17.1313 14.9996 17.0535 15.0278 16.9808C15.0561 16.908 15.0991 16.842 15.1543 16.7868L17.1927 14.7484C17.32 14.6217 17.4065 14.4598 17.4409 14.2836C17.4754 14.1074 17.4562 13.9248 17.386 13.7596C17.3425 13.6498 17.2767 13.5503 17.1927 13.4674L15.1184 11.3908C15.0343 11.3068 14.9344 11.2403 14.8244 11.1952C14.7145 11.15 14.5967 11.1272 14.4779 11.1278V11.1234Z" fill="black"/>
</svg>
