<svg width="82" height="82" viewBox="0 0 82 82" fill="none" xmlns="http://www.w3.org/2000/svg">
<circle cx="41" cy="41" r="41" fill="#EB001B" fill-opacity="0.1"/>
<path d="M40.6215 21.0984C29.8638 21.0984 21.0977 29.8646 21.0977 40.6222C21.0977 51.3798 29.8638 60.146 40.6215 60.146C51.3791 60.146 60.1453 51.3798 60.1453 40.6222C60.1453 29.8646 51.3791 21.0984 40.6215 21.0984ZM49.9538 36.1317L38.8838 47.2017C38.6105 47.4751 38.2396 47.6312 37.8491 47.6312C37.4586 47.6312 37.0877 47.4751 36.8143 47.2017L31.2891 41.6765C30.7229 41.1103 30.7229 40.1731 31.2891 39.607C31.8553 39.0408 32.7924 39.0408 33.3586 39.607L37.8491 44.0974L47.8843 34.0622C48.4505 33.496 49.3877 33.496 49.9538 34.0622C50.52 34.6284 50.52 35.546 49.9538 36.1317Z" fill="#EB001B"/>
<rect x="28.1934" y="28.1936" width="24" height="24" rx="12" fill="#EB001B"/>
<path d="M44.7005 34.8896C44.9202 34.6699 45.2763 34.6699 45.4959 34.8896C45.7156 35.1093 45.7156 35.4654 45.4959 35.6851L40.9881 40.1929L45.4959 44.7007C45.7156 44.9204 45.7156 45.2765 45.4959 45.4962C45.2763 45.7159 44.9202 45.7159 44.7005 45.4962L40.1926 40.9884L35.6849 45.4961C35.6574 45.5237 35.6278 45.5477 35.5966 45.5683C35.3783 45.7124 35.0816 45.6884 34.8894 45.4961C34.6697 45.2765 34.6697 44.9204 34.8894 44.7007L39.3972 40.1929L34.8894 35.6851C34.6697 35.4655 34.6697 35.1093 34.8894 34.8896C35.109 34.67 35.4652 34.67 35.6849 34.8896L40.1926 39.3974L44.7005 34.8896Z" fill="white"/>
</svg>
