<svg width="24" height="24" viewBox="0 0 24 24" fill="none" xmlns="http://www.w3.org/2000/svg">
<g clip-path="url(#clip0_2553_6460)">
<path d="M11.9594 22.2054C17.5643 22.2054 22.2049 17.5548 22.2049 11.9599C22.2049 6.35498 17.5543 1.71436 11.9494 1.71436C6.35449 1.71436 1.71387 6.35498 1.71387 11.9599C1.71387 17.5548 6.36454 22.2054 11.9594 22.2054ZM11.9594 20.4979C7.21834 20.4979 3.4315 16.701 3.4315 11.9599C3.4315 7.21882 7.20829 3.42195 11.9494 3.42195C16.6905 3.42195 20.4974 7.21882 20.4974 11.9599C20.4974 16.701 16.7005 20.4979 11.9594 20.4979Z" fill="#EE8E1F"/>
<path d="M6.44582 12.8035L10.6545 12.8135C10.8453 12.8135 10.976 12.934 10.976 13.1349V17.2934C10.976 18.1874 11.9201 18.2778 12.2215 17.6349L16.6813 8.12264C17.0529 7.34921 16.38 6.68626 15.5965 7.05792L6.11435 11.5579C5.46145 11.8693 5.56189 12.8035 6.44582 12.8035Z" fill="#EE8E1F"/>
</g>
<defs>
<clipPath id="clip0_2553_6460">
<rect width="20.491" height="20.5011" fill="white" transform="translate(1.71387 1.71436)"/>
</clipPath>
</defs>
</svg>
