<svg width="57" height="57" viewBox="0 0 57 57" fill="none" xmlns="http://www.w3.org/2000/svg">
<path d="M28.5 57C44.2401 57 57 44.2401 57 28.5C57 12.7599 44.2401 0 28.5 0C12.7599 0 0 12.7599 0 28.5C0 44.2401 12.7599 57 28.5 57Z" fill="#F8DC4A"/>
<path d="M28.4997 52.3627C41.6789 52.3627 52.3627 41.6789 52.3627 28.4997C52.3627 15.3205 41.6789 4.63672 28.4997 4.63672C15.3205 4.63672 4.63672 15.3205 4.63672 28.4997C4.63672 41.6789 15.3205 52.3627 28.4997 52.3627Z" fill="#C99204"/>
<path d="M28.5012 50.3305C40.5572 50.3305 50.3305 40.5572 50.3305 28.5012C50.3305 16.4452 40.5572 6.67188 28.5012 6.67188C16.4452 6.67188 6.67188 16.4452 6.67188 28.5012C6.67188 40.5572 16.4452 50.3305 28.5012 50.3305Z" fill="#DEA004"/>
<path d="M26.3761 17.9766C26.3761 18.2073 25.3963 18.606 24.9264 18.8367C22.1863 20.184 20.7508 22.343 19.8991 25.2198C18.0905 31.3949 19.1586 40.8768 26.2423 43.0757L26.2594 43.2836C21.3204 42.9418 17.3357 39.4897 15.8859 34.8214C13.4648 27.0113 17.9025 18.6459 26.379 17.9766H26.3761Z" fill="#C99204"/>
<path d="M31.9603 35.8008V36.3989C31.3308 36.2964 30.0406 36.7664 30.0548 35.8008H31.9603Z" fill="#C99204"/>
<path d="M31.9631 38.1855L31.9061 38.6726C31.7153 38.872 30.2399 38.7837 30.1772 38.721C29.9465 38.5046 30.1146 38.1884 30.2399 38.1884H31.9603L31.9631 38.1855Z" fill="#C99204"/>
<path d="M38.5606 43.0209V43.1234C37.2219 42.2376 36.2649 42.343 34.3223 42.7104C33.9891 42.8072 33.653 42.9098 33.3197 43.0123C32.2602 43.3399 31.1607 43.5051 30.0527 43.5051V43.2658H30.5455C30.9841 43.2658 31.4228 43.1633 31.813 42.9639C32.2431 42.7417 32.602 42.4142 32.7444 41.9357C32.8868 41.5141 32.8555 41.0271 32.8555 40.5571V33.9519L30.5369 33.969C30.2977 33.969 30.1154 33.7696 30.1239 33.5304C30.1325 33.2996 30.3319 33.123 30.5626 33.123H38.028C38.3242 33.123 38.5606 33.3623 38.5606 33.6557V43.018V43.0209Z" fill="#C99204"/>
<path d="M32.0189 35.8008H30.0508V36.4787H32.0189V35.8008Z" fill="#C99204"/>
<path d="M32.0189 38.1758H30.0508V38.8537H32.0189V38.1758Z" fill="#C99204"/>
<path d="M29.6836 18.0073C29.6836 18.0073 31.8682 17.919 33.2838 18.3576C34.6311 18.7792 36.8698 19.4001 37.562 18.7165C37.6104 18.6681 37.6417 18.614 37.6816 18.5484C37.7129 18.4915 37.8098 18.5484 37.8012 19.8701V24.8745C37.8012 24.9372 37.7129 24.9543 37.6901 24.8973C37.1404 23.5586 34.52 17.9104 29.6836 18.0044V18.0073Z" fill="#C99204"/>
<path d="M33.8272 12.1613C31.6996 13.0613 31.3321 15.6277 31.3321 15.6277C31.3321 15.6277 27.0141 16.0663 24.8779 15.6277C24.8779 15.6277 24.5105 13.0613 22.3828 12.1613C22.3828 12.1613 23.6418 11.3552 24.3197 12.7594C24.3197 12.7594 25.0374 12.4262 25.2824 12.8705C25.2824 12.8705 25.4333 13.1582 25.3707 13.4601C25.3621 13.5085 25.2995 13.5228 25.2738 13.4914C25.177 13.3803 24.9862 13.2208 24.7811 13.3319C24.4849 13.4914 24.9235 14.2405 25.3479 14.1921C25.7466 14.1522 26.0657 14.2092 26.1283 13.3547C26.1283 13.2977 26.2081 13.2835 26.2309 13.3234C26.3676 13.5399 26.4787 13.7763 26.6695 13.9614C26.7492 14.0412 26.8518 14.1209 26.9714 14.1209C27.2676 14.1209 27.4983 13.8247 27.5838 13.5712C27.655 13.3547 27.655 13.1183 27.6009 12.8933C27.4898 12.4547 27.148 12.0474 26.6695 12.0246C26.5726 12.0246 26.4787 12.0246 26.3818 12.0473C26.3505 12.0559 26.0714 12.1271 26.0799 12.167C26.0486 11.3296 26.7578 11.3153 27.3873 11.5688C27.3702 10.8909 27.524 10.1418 28.0395 9.67188C28.5579 10.1418 28.7089 10.8909 28.6918 11.5688C29.4978 11.0504 30.2783 11.5916 30.1188 12.5173C29.2273 11.116 27.823 13.2038 28.8029 14.007C28.9453 14.1038 29.1361 14.1038 29.2899 14.0241C29.5776 13.856 29.8567 13.5142 29.9821 13.3234C30.0134 13.275 30.0846 13.2921 30.0846 13.3547C30.1473 14.2064 30.4663 14.1437 30.865 14.1921C31.2951 14.2405 31.7338 13.4914 31.4375 13.3319C31.2296 13.2208 31.0388 13.3889 30.9448 13.4914C30.9134 13.5228 30.8565 13.5085 30.8479 13.4601C30.7853 13.1639 30.9362 12.8705 30.9362 12.8705C31.1755 12.4233 31.899 12.7594 31.899 12.7594C32.5768 11.3581 33.8358 12.1613 33.8358 12.1613H33.8187H33.8272Z" fill="#C99204"/>
<path d="M24.8848 15.8679C24.8848 16.6797 26.702 16.768 27.6106 16.768H28.5904C29.4819 16.7908 31.339 16.7281 31.339 15.8594C30.1997 16.1556 26.4399 16.1613 24.8848 15.8594V15.8679Z" fill="#C99204"/>
<path d="M26.8683 17.6953C26.8683 17.926 25.8885 18.3248 25.4185 18.5555C22.6785 19.9027 21.243 22.0617 20.3913 24.9385C18.5826 31.1136 19.6508 40.5956 26.7345 42.7945L26.7515 43.0024C21.8126 42.6606 17.8279 39.2085 16.3781 34.5401C13.957 26.7301 18.3947 18.3647 26.8712 17.6953H26.8683Z" fill="#F8DC4A"/>
<path d="M32.4525 35.5195V36.1177C31.823 36.0151 30.5328 36.4851 30.547 35.5195H32.4525Z" fill="#F8DC4A"/>
<path d="M32.4553 37.9043L32.3983 38.3914C32.2075 38.5907 30.7321 38.5024 30.6694 38.4398C30.4387 38.2233 30.6068 37.9071 30.7321 37.9071H32.4524L32.4553 37.9043Z" fill="#F8DC4A"/>
<path d="M39.0508 42.7396V42.8421C37.7121 41.9563 36.7551 42.0617 34.8126 42.4291C34.4793 42.526 34.1432 42.6285 33.81 42.7311C32.7504 43.0586 31.651 43.2238 30.543 43.2238V42.9846H31.0357C31.4744 42.9846 31.913 42.882 32.3032 42.6826C32.7333 42.4605 33.0922 42.1329 33.2346 41.6544C33.377 41.2329 33.3457 40.7458 33.3457 40.2758V33.6707L31.0272 33.6877C30.7879 33.6877 30.6056 33.4884 30.6142 33.2491C30.6227 33.0184 30.8221 32.8418 31.0528 32.8418H38.5182C38.8144 32.8418 39.0508 33.0811 39.0508 33.3744V42.7368V42.7396Z" fill="#F8DC4A"/>
<path d="M32.5072 35.5195H30.5391V36.1974H32.5072V35.5195Z" fill="#F8DC4A"/>
<path d="M32.5072 37.8945H30.5391V38.5724H32.5072V37.8945Z" fill="#F8DC4A"/>
<path d="M30.1719 17.7299C30.1719 17.7299 32.3565 17.6416 33.7721 18.0803C35.1194 18.5018 37.3581 19.1227 38.0502 18.4392C38.0987 18.3907 38.13 18.3366 38.1699 18.2711C38.2012 18.2141 38.298 18.2711 38.2895 19.5927V24.5972C38.2895 24.6598 38.2012 24.6769 38.1784 24.6199C37.6287 23.2813 35.0083 17.6331 30.1719 17.7271V17.7299Z" fill="#F8DC4A"/>
<path d="M34.3155 11.88C32.1879 12.7801 31.8204 15.3464 31.8204 15.3464C31.8204 15.3464 27.5024 15.785 25.3662 15.3464C25.3662 15.3464 24.9988 12.7801 22.8711 11.88C22.8711 11.88 24.13 11.074 24.8079 12.4782C24.8079 12.4782 25.5257 12.1449 25.7707 12.5893C25.7707 12.5893 25.9216 12.8769 25.859 13.1789C25.8504 13.2273 25.7877 13.2415 25.7621 13.2102C25.6653 13.0991 25.4744 12.9396 25.2694 13.0507C24.9731 13.2102 25.4118 13.9593 25.8362 13.9109C26.2349 13.871 26.5539 13.928 26.6166 13.0735C26.6166 13.0165 26.6963 13.0023 26.7191 13.0421C26.8559 13.2586 26.9669 13.495 27.1578 13.6802C27.2375 13.7599 27.3401 13.8397 27.4597 13.8397C27.7559 13.8397 27.9866 13.5434 28.0721 13.2899C28.1433 13.0735 28.1433 12.8371 28.0892 12.612C27.9781 12.1734 27.6363 11.7661 27.1578 11.7433C27.0609 11.7433 26.9669 11.7433 26.8701 11.7661C26.8388 11.7746 26.5596 11.8459 26.5682 11.8857C26.5368 11.0483 27.2461 11.0341 27.8755 11.2876C27.8585 10.6097 28.0123 9.86059 28.5278 9.39062C29.0462 9.86059 29.1971 10.6097 29.1801 11.2876C29.9861 10.7692 30.7666 11.3104 30.6071 12.2361C29.7155 10.8347 28.3113 12.9225 29.2911 13.7257C29.4336 13.8226 29.6244 13.8226 29.7782 13.7428C30.0659 13.5748 30.345 13.233 30.4703 13.0421C30.5017 12.9937 30.5729 13.0108 30.5729 13.0735C30.6355 13.9251 30.9545 13.8624 31.3533 13.9109C31.7834 13.9593 32.222 13.2102 31.9258 13.0507C31.7179 12.9396 31.5271 13.1076 31.4331 13.2102C31.4017 13.2415 31.3448 13.2273 31.3362 13.1789C31.2736 12.8826 31.4245 12.5893 31.4245 12.5893C31.6638 12.1421 32.3872 12.4782 32.3872 12.4782C33.0651 11.0768 34.3241 11.88 34.3241 11.88H34.307H34.3155Z" fill="#F8DC4A"/>
<path d="M25.377 15.5867C25.377 16.3984 27.1942 16.4867 28.1028 16.4867H29.0826C29.9741 16.5095 31.8312 16.4469 31.8312 15.5781C30.6919 15.8743 26.9321 15.88 25.377 15.5781V15.5867Z" fill="#F8DC4A"/>
<path opacity="0.1" d="M48.1376 7.85742L6.41016 46.5059C7.06526 47.3091 7.76594 48.0753 8.50365 48.8045L50.2738 10.119C49.6045 9.32714 48.8896 8.57234 48.1405 7.85742H48.1376Z" fill="white"/>
<path opacity="0.1" d="M52.4304 13.0302L11.2441 51.1774C13.2864 52.7354 15.5479 54.0171 17.9718 54.9827L55.7174 20.0199C54.9398 17.5219 53.8232 15.1778 52.4304 13.0273V13.0302Z" fill="white"/>
<path opacity="0.1" d="M38.866 1.95402L1.23438 36.8086C2.04614 39.4774 3.23957 41.9811 4.75201 44.254L46.0209 6.02992C43.8619 4.34374 41.4579 2.96516 38.866 1.95117V1.95402Z" fill="white"/>
</svg>
