<svg width="47" height="47" viewBox="0 0 47 47" fill="none" xmlns="http://www.w3.org/2000/svg">
<mask id="mask0_2535_5901" style="mask-type:luminance" maskUnits="userSpaceOnUse" x="6" y="6" width="34" height="34">
<path d="M34.5709 34.5702C40.9351 28.206 40.9351 17.8877 34.5709 11.5235C28.2068 5.15938 17.8885 5.15938 11.5243 11.5235C5.16014 17.8877 5.16014 28.206 11.5243 34.5702C17.8885 40.9344 28.2068 40.9344 34.5709 34.5702Z" fill="white"/>
</mask>
<g mask="url(#mask0_2535_5901)">
<path d="M39.3429 6.75146H6.75098V39.3434H39.3429V6.75146Z" fill="#C9CBCC"/>
</g>
<mask id="mask1_2535_5901" style="mask-type:luminance" maskUnits="userSpaceOnUse" x="6" y="6" width="34" height="34">
<path d="M39.3429 6.75146H6.75098V39.3434H39.3429V6.75146Z" fill="white"/>
</mask>
<g mask="url(#mask1_2535_5901)">
<path d="M19.0208 19.2934C19.0208 18.8416 18.8869 18.3999 18.6359 18.0243C18.3848 17.6486 18.0281 17.3558 17.6107 17.1829C17.1933 17.01 16.734 16.9648 16.2908 17.0529C15.8477 17.1411 15.4407 17.3586 15.1212 17.6781C14.8017 17.9976 14.5842 18.4046 14.496 18.8477C14.4079 19.2908 14.4531 19.7501 14.626 20.1676C14.7989 20.585 15.0917 20.9417 15.4674 21.1927C15.843 21.4437 16.2847 21.5777 16.7365 21.5777C17.3423 21.5777 17.9234 21.337 18.3518 20.9087C18.7802 20.4803 19.0208 19.8992 19.0208 19.2934Z" fill="#515151"/>
<path d="M31.6385 19.3293C31.6385 18.8775 31.5045 18.4358 31.2535 18.0602C31.0025 17.6845 30.6458 17.3917 30.2283 17.2188C29.8109 17.0459 29.3516 17.0007 28.9085 17.0888C28.4654 17.177 28.0584 17.3945 27.7389 17.714C27.4194 18.0335 27.2019 18.4405 27.1137 18.8836C27.0256 19.3267 27.0708 19.786 27.2437 20.2034C27.4166 20.6209 27.7094 20.9776 28.0851 21.2286C28.4607 21.4796 28.9024 21.6136 29.3542 21.6136C29.6541 21.6136 29.9512 21.5545 30.2283 21.4397C30.5055 21.3249 30.7573 21.1567 30.9694 20.9445C31.1816 20.7324 31.3498 20.4806 31.4646 20.2034C31.5794 19.9263 31.6385 19.6293 31.6385 19.3293Z" fill="#515151"/>
<path d="M19.0216 16.1076C18.9069 16.1077 18.7945 16.0758 18.6971 16.0154C18.0748 15.5466 17.3193 15.2882 16.5402 15.2778C15.7612 15.2674 14.999 15.5054 14.3644 15.9573C14.3031 16.0105 14.2319 16.051 14.1549 16.0767C14.0779 16.1023 13.9966 16.1125 13.9157 16.1067C13.8348 16.101 13.7557 16.0793 13.6832 16.043C13.6106 16.0067 13.5459 15.9564 13.4928 15.8951C13.4396 15.8338 13.3991 15.7626 13.3734 15.6856C13.3478 15.6086 13.3376 15.5274 13.3434 15.4464C13.3491 15.3655 13.3708 15.2865 13.4071 15.2139C13.4434 15.1414 13.4937 15.0767 13.555 15.0235C14.0472 14.6325 14.6188 14.3538 15.23 14.2067C15.9309 14.0418 16.6585 14.0241 17.3667 14.1547C18.0748 14.2853 18.7482 14.5613 19.3442 14.9654C19.4586 15.0361 19.5468 15.1422 19.5954 15.2675C19.6441 15.3929 19.6504 15.5307 19.6136 15.66C19.5768 15.7893 19.4988 15.9031 19.3915 15.984C19.2841 16.065 19.1532 16.1087 19.0188 16.1085" fill="#515151"/>
<path d="M32.1285 16.1445C32.0138 16.1446 31.9014 16.1127 31.804 16.0523C31.1817 15.5835 30.4262 15.3251 29.6472 15.3147C28.8681 15.3042 28.106 15.5422 27.4713 15.9942C27.3475 16.1015 27.1861 16.1553 27.0226 16.1436C26.8592 16.1319 26.707 16.0558 26.5997 15.932C26.4924 15.8082 26.4386 15.6468 26.4503 15.4833C26.462 15.3198 26.5381 15.1677 26.6619 15.0604C27.1542 14.6694 27.7258 14.3907 28.3369 14.2436C29.0379 14.0787 29.7654 14.061 30.4736 14.1916C31.1817 14.3221 31.8551 14.5982 32.4511 15.0023C32.5655 15.073 32.6537 15.179 32.7024 15.3044C32.751 15.4297 32.7574 15.5675 32.7206 15.6969C32.6837 15.8262 32.6057 15.94 32.4984 16.0209C32.391 16.1019 32.2602 16.1456 32.1257 16.1454" fill="#515151"/>
<path d="M31.5616 28.3672C31.5428 28.2603 31.4992 28.1592 31.4344 28.0722C31.3696 27.9851 31.2853 27.9144 31.1883 27.8657C31.0116 27.7703 30.8094 27.7325 30.6102 27.7578C30.411 27.7831 30.2247 27.8702 30.0774 28.0068C27.7894 30.3317 26.449 31.3346 22.9921 31.4176C19.0079 31.5098 16.0783 27.9146 16.046 27.8814C15.9084 27.7347 15.7276 27.6355 15.53 27.5982C15.3323 27.5609 15.1278 27.5875 14.9462 27.674C14.8444 27.7172 14.754 27.7833 14.682 27.8673C14.61 27.9512 14.5585 28.0507 14.5314 28.1579C14.5112 28.2524 14.5132 28.3503 14.5372 28.4438C14.5612 28.5374 14.6065 28.6241 14.6697 28.6972C15.3429 29.4514 16.1029 30.1235 16.9337 30.6995C18.6804 31.9824 20.7666 32.7218 22.9313 32.8253C23.017 32.8253 23.1018 32.8253 23.1866 32.8253C26.0619 32.8253 28.8173 31.5061 31.3772 28.9056C31.4478 28.8364 31.5013 28.7517 31.5333 28.6583C31.5653 28.5648 31.575 28.4651 31.5616 28.3672Z" fill="#515151"/>
</g>
</svg>
