<svg width="47" height="47" viewBox="0 0 47 47" fill="none" xmlns="http://www.w3.org/2000/svg">
<mask id="mask0_2535_5727" style="mask-type:luminance" maskUnits="userSpaceOnUse" x="6" y="6" width="34" height="34">
<path d="M34.571 34.5702C40.9351 28.206 40.9351 17.8877 34.571 11.5235C28.2068 5.15938 17.8885 5.15938 11.5243 11.5235C5.16015 17.8877 5.16015 28.206 11.5243 34.5702C17.8885 40.9344 28.2068 40.9344 34.571 34.5702Z" fill="white"/>
</mask>
<g mask="url(#mask0_2535_5727)">
<path d="M39.3429 6.75H6.75098V39.342H39.3429V6.75Z" fill="#FFC727"/>
</g>
<mask id="mask1_2535_5727" style="mask-type:luminance" maskUnits="userSpaceOnUse" x="6" y="6" width="34" height="34">
<path d="M39.3429 6.75H6.75098V39.342H39.3429V6.75Z" fill="white"/>
</mask>
<g mask="url(#mask1_2535_5727)">
<path d="M19.16 19.4159C19.16 18.9641 19.026 18.5225 18.775 18.1468C18.524 17.7712 18.1672 17.4784 17.7498 17.3055C17.3324 17.1326 16.8731 17.0873 16.43 17.1755C15.9869 17.2636 15.5798 17.4812 15.2604 17.8007C14.9409 18.1201 14.7233 18.5272 14.6352 18.9703C14.5471 19.4134 14.5923 19.8727 14.7652 20.2901C14.9381 20.7075 15.2309 21.0643 15.6065 21.3153C15.9822 21.5663 16.4239 21.7003 16.8757 21.7003C17.4815 21.7003 18.0625 21.4596 18.4909 21.0312C18.9193 20.6028 19.16 20.0218 19.16 19.4159Z" fill="#515151"/>
<path d="M31.7796 19.4526C31.7796 19.0008 31.6456 18.5591 31.3946 18.1834C31.1436 17.8078 30.7869 17.515 30.3695 17.3421C29.9521 17.1692 29.4927 17.124 29.0496 17.2121C28.6065 17.3003 28.1995 17.5178 27.88 17.8373C27.5605 18.1568 27.343 18.5638 27.2548 19.0069C27.1667 19.45 27.2119 19.9093 27.3848 20.3267C27.5577 20.7441 27.8505 21.1009 28.2262 21.3519C28.6018 21.6029 29.0435 21.7369 29.4953 21.7369C30.1011 21.7369 30.6822 21.4962 31.1106 21.0678C31.539 20.6394 31.7796 20.0584 31.7796 19.4526Z" fill="#515151"/>
<path d="M18.0708 14.553C17.9609 14.586 17.8441 14.5876 17.7334 14.5576C17.0031 14.2882 16.206 14.2582 15.4575 14.472C14.7091 14.6858 14.0481 15.1323 13.5703 15.7468C13.5268 15.8153 13.4703 15.8746 13.4039 15.9213C13.3376 15.9679 13.2626 16.0011 13.1835 16.0188C13.1043 16.0365 13.0224 16.0385 12.9424 16.0245C12.8625 16.0106 12.7861 15.9811 12.7176 15.9376C12.6491 15.8941 12.5898 15.8376 12.5431 15.7712C12.4964 15.7049 12.4633 15.63 12.4456 15.5508C12.4279 15.4716 12.4259 15.3897 12.4398 15.3098C12.4538 15.2298 12.4833 15.1534 12.5268 15.0849C12.8857 14.569 13.3528 14.1377 13.8957 13.821C14.5193 13.4608 15.2108 13.2338 15.9266 13.1545C16.6424 13.0752 17.3668 13.1452 18.0542 13.3601C18.1838 13.3953 18.2985 13.4718 18.3809 13.5779C18.4632 13.684 18.5088 13.8141 18.5107 13.9485C18.5125 14.0828 18.4706 14.2141 18.3913 14.3225C18.3119 14.4309 18.1994 14.5105 18.0708 14.5493" fill="#515151"/>
<path d="M32.8569 15.9909C32.7475 15.957 32.6498 15.8931 32.5748 15.8066C32.1219 15.1737 31.4794 14.7014 30.7402 14.4579C30.0011 14.2144 29.2037 14.2125 28.4633 14.4524C28.3889 14.4847 28.3088 14.502 28.2276 14.5034C28.1465 14.5048 28.0658 14.4902 27.9903 14.4604C27.9148 14.4306 27.846 14.3862 27.7876 14.3298C27.7293 14.2734 27.6826 14.206 27.6502 14.1316C27.6179 14.0571 27.6006 13.977 27.5992 13.8959C27.5978 13.8147 27.6125 13.7341 27.6423 13.6586C27.672 13.5831 27.7164 13.5142 27.7728 13.4558C27.8293 13.3975 27.8966 13.3508 27.9711 13.3185C28.5582 13.0931 29.1874 12.9987 29.8148 13.0419C30.5329 13.0947 31.2323 13.2959 31.8687 13.6328C32.5052 13.9696 33.0648 14.4349 33.5123 14.999C33.6003 15.1008 33.6526 15.2284 33.6614 15.3627C33.6702 15.4969 33.6349 15.6303 33.561 15.7426C33.487 15.855 33.3784 15.9401 33.2517 15.9851C33.1249 16.0301 32.9869 16.0325 32.8587 15.9919" fill="#515151"/>
<path d="M30.26 26.9307C30.26 31.4837 27.0335 35.1748 23.0465 35.1748C19.0595 35.1748 15.834 31.4874 15.834 26.9307H30.26Z" fill="#515151"/>
</g>
</svg>
