<svg width="68" height="28" viewBox="0 0 68 28" fill="none" xmlns="http://www.w3.org/2000/svg">
<mask id="path-1-inside-1_5797_11474" fill="white">
<path d="M0 14C0 6.26801 6.26801 0 14 0H54C61.732 0 68 6.26801 68 14V14C68 21.732 61.732 28 54 28H14C6.26801 28 0 21.732 0 14V14Z"/>
</mask>
<path d="M0 14C0 6.26801 6.26801 0 14 0H54C61.732 0 68 6.26801 68 14V14C68 21.732 61.732 28 54 28H14C6.26801 28 0 21.732 0 14V14Z" fill="white"/>
<path d="M0 14M68 14M68 14M0 14M14 0V1H54V0V-1H14V0ZM68 14M54 28V27H14V28V29H54V28ZM0 14M14 28V27C6.8203 27 1 21.1797 1 14H0H-1C-1 22.2843 5.71573 29 14 29V28ZM68 14H67C67 21.1797 61.1797 27 54 27V28V29C62.2843 29 69 22.2843 69 14H68ZM54 0V1C61.1797 1 67 6.8203 67 14H68H69C69 5.71573 62.2843 -1 54 -1V0ZM14 0V-1C5.71573 -1 -1 5.71573 -1 14H0H1C1 6.8203 6.8203 1 14 1V0Z" fill="#F1F1F1" mask="url(#path-1-inside-1_5797_11474)"/>
<g clip-path="url(#clip0_5797_11474)">
<path d="M15 26C21.6274 26 27 20.6274 27 14C27 7.37258 21.6274 2 15 2C8.37258 2 3 7.37258 3 14C3 20.6274 8.37258 26 15 26Z" fill="#F8DC4A"/>
<path d="M15.0007 24.0483C20.5498 24.0483 25.0483 19.5498 25.0483 14.0007C25.0483 8.45158 20.5498 3.95312 15.0007 3.95312C9.45158 3.95312 4.95312 8.45158 4.95312 14.0007C4.95312 19.5498 9.45158 24.0483 15.0007 24.0483Z" fill="#C99204"/>
<path d="M14.9999 23.1912C20.0761 23.1912 24.1912 19.0761 24.1912 13.9999C24.1912 8.92367 20.0761 4.80859 14.9999 4.80859C9.92367 4.80859 5.80859 8.92367 5.80859 13.9999C5.80859 19.0761 9.92367 23.1912 14.9999 23.1912Z" fill="#DEA004"/>
<path d="M14.1058 9.57031C14.1058 9.66745 13.6933 9.83535 13.4954 9.9325C12.3417 10.4998 11.7373 11.4088 11.3787 12.6201C10.6171 15.2201 11.0669 19.2125 14.0495 20.1384L14.0567 20.2259C11.9771 20.082 10.2993 18.6285 9.6889 16.6629C8.66951 13.3744 10.538 9.85214 14.107 9.57031H14.1058Z" fill="#C99204"/>
<path d="M16.4576 17.0742V17.3261C16.1926 17.2829 15.6493 17.4808 15.6553 17.0742H16.4576Z" fill="#C99204"/>
<path d="M16.4575 18.0781L16.4335 18.2832C16.3531 18.3672 15.7319 18.33 15.7055 18.3036C15.6084 18.2124 15.6792 18.0793 15.7319 18.0793H16.4563L16.4575 18.0781Z" fill="#C99204"/>
<path d="M19.2365 20.1148V20.1579C18.6729 19.785 18.2699 19.8293 17.452 19.984C17.3117 20.0248 17.1702 20.068 17.0299 20.1112C16.5837 20.2491 16.1208 20.3186 15.6543 20.3186V20.2179H15.8618C16.0465 20.2179 16.2312 20.1747 16.3955 20.0908C16.5765 19.9972 16.7277 19.8593 16.7876 19.6578C16.8476 19.4803 16.8344 19.2753 16.8344 19.0774V16.2963L15.8582 16.3035C15.7574 16.3035 15.6807 16.2195 15.6843 16.1188C15.6879 16.0216 15.7718 15.9473 15.869 15.9473H19.0123C19.137 15.9473 19.2365 16.048 19.2365 16.1715V20.1136V20.1148Z" fill="#C99204"/>
<path d="M16.481 17.0742H15.6523V17.3596H16.481V17.0742Z" fill="#C99204"/>
<path d="M16.481 18.0742H15.6523V18.3596H16.481V18.0742Z" fill="#C99204"/>
<path d="M15.498 9.58314C15.498 9.58314 16.4179 9.54596 17.0139 9.73065C17.5812 9.90815 18.5238 10.1696 18.8153 9.88176C18.8356 9.86137 18.8488 9.83859 18.8656 9.811C18.8788 9.78702 18.9196 9.811 18.916 10.3675V12.4746C18.916 12.501 18.8788 12.5082 18.8692 12.4842C18.6378 11.9205 17.5344 9.54237 15.498 9.58194V9.58314Z" fill="#C99204"/>
<path d="M17.2435 7.12044C16.3477 7.49941 16.1929 8.57996 16.1929 8.57996C16.1929 8.57996 14.3748 8.76465 13.4754 8.57996C13.4754 8.57996 13.3207 7.49941 12.4248 7.12044C12.4248 7.12044 12.9549 6.78104 13.2403 7.37229C13.2403 7.37229 13.5425 7.23197 13.6457 7.41906C13.6457 7.41906 13.7092 7.54018 13.6829 7.66731C13.6793 7.6877 13.6529 7.69369 13.6421 7.6805C13.6013 7.63373 13.5209 7.56657 13.4346 7.61334C13.3099 7.6805 13.4946 7.99591 13.6733 7.97552C13.8412 7.95873 13.9755 7.98272 14.0019 7.62294C14.0019 7.59895 14.0354 7.59295 14.045 7.60974C14.1026 7.70089 14.1494 7.80043 14.2297 7.87838C14.2633 7.91196 14.3065 7.94554 14.3568 7.94554C14.4816 7.94554 14.5787 7.82082 14.6147 7.71408C14.6447 7.62294 14.6447 7.5234 14.6219 7.42865C14.5751 7.24396 14.4312 7.07247 14.2297 7.06287C14.1889 7.06287 14.1494 7.06287 14.1086 7.07247C14.0954 7.07606 13.9779 7.10605 13.9815 7.12284C13.9683 6.77025 14.2669 6.76425 14.5319 6.87099C14.5247 6.58556 14.5895 6.27015 14.8066 6.07227C15.0248 6.27015 15.0884 6.58556 15.0812 6.87099C15.4206 6.65272 15.7492 6.88058 15.6821 7.27035C15.3067 6.6803 14.7154 7.55937 15.128 7.89757C15.1879 7.93835 15.2683 7.93835 15.3331 7.90477C15.4542 7.83401 15.5717 7.69009 15.6245 7.60974C15.6377 7.58936 15.6677 7.59655 15.6677 7.62294C15.694 7.98152 15.8284 7.95514 15.9963 7.97552C16.1774 7.99591 16.362 7.6805 16.2373 7.61334C16.1498 7.56657 16.0694 7.63733 16.0298 7.6805C16.0167 7.69369 15.9927 7.6877 15.9891 7.66731C15.9627 7.54258 16.0262 7.41906 16.0262 7.41906C16.127 7.23077 16.4316 7.37229 16.4316 7.37229C16.717 6.78224 17.2471 7.12044 17.2471 7.12044H17.2399H17.2435Z" fill="#C99204"/>
<path d="M13.4785 8.68133C13.4785 9.02313 14.2437 9.0603 14.6262 9.0603H15.0388C15.4142 9.0699 16.1961 9.04351 16.1961 8.67773C15.7164 8.80246 14.1333 8.80486 13.4785 8.67773V8.68133Z" fill="#C99204"/>
<path d="M14.3129 9.45117C14.3129 9.54831 13.9003 9.71621 13.7024 9.81335C12.5487 10.3806 11.9443 11.2897 11.5857 12.5009C10.8242 15.101 11.2739 19.0934 14.2565 20.0192L14.2637 20.1068C12.1842 19.9629 10.5064 18.5093 9.89593 16.5437C8.87654 13.2553 10.745 9.733 14.3141 9.45117H14.3129Z" fill="#F8DC4A"/>
<path d="M16.6647 16.9551V17.2069C16.3996 17.1638 15.8564 17.3616 15.8624 16.9551H16.6647Z" fill="#F8DC4A"/>
<path d="M16.6645 17.959L16.6405 18.1641C16.5602 18.248 15.9389 18.2108 15.9126 18.1844C15.8154 18.0933 15.8862 17.9602 15.9389 17.9602H16.6633L16.6645 17.959Z" fill="#F8DC4A"/>
<path d="M19.4426 19.9956V20.0388C18.8789 19.6658 18.476 19.7102 17.6581 19.8649C17.5178 19.9057 17.3762 19.9489 17.2359 19.992C16.7898 20.1299 16.3269 20.1995 15.8604 20.1995V20.0988H16.0678C16.2525 20.0988 16.4372 20.0556 16.6015 19.9716C16.7826 19.8781 16.9337 19.7402 16.9937 19.5387C17.0536 19.3612 17.0404 19.1561 17.0404 18.9582V16.1771L16.0642 16.1843C15.9635 16.1843 15.8867 16.1004 15.8903 15.9996C15.8939 15.9025 15.9779 15.8281 16.075 15.8281H19.2183C19.3431 15.8281 19.4426 15.9289 19.4426 16.0524V19.9944V19.9956Z" fill="#F8DC4A"/>
<path d="M16.6881 16.9551H15.8594V17.2405H16.6881V16.9551Z" fill="#F8DC4A"/>
<path d="M16.6881 17.9551H15.8594V18.2405H16.6881V17.9551Z" fill="#F8DC4A"/>
<path d="M15.7041 9.464C15.7041 9.464 16.6239 9.42682 17.22 9.61151C17.7873 9.78901 18.7299 10.0504 19.0213 9.76262C19.0417 9.74223 19.0549 9.71945 19.0717 9.69186C19.0849 9.66788 19.1256 9.69186 19.1221 10.2483V12.3555C19.1221 12.3819 19.0849 12.389 19.0753 12.3651C18.8438 11.8014 17.7405 9.42323 15.7041 9.4628V9.464Z" fill="#F8DC4A"/>
<path d="M17.4486 7.0013C16.5527 7.38027 16.398 8.46082 16.398 8.46082C16.398 8.46082 14.5799 8.64551 13.6805 8.46082C13.6805 8.46082 13.5257 7.38027 12.6299 7.0013C12.6299 7.0013 13.16 6.6619 13.4454 7.25314C13.4454 7.25314 13.7476 7.11283 13.8508 7.29992C13.8508 7.29992 13.9143 7.42104 13.8879 7.54817C13.8843 7.56856 13.8579 7.57455 13.8472 7.56136C13.8064 7.51459 13.726 7.44743 13.6397 7.4942C13.515 7.56136 13.6996 7.87677 13.8783 7.85638C14.0462 7.83959 14.1806 7.86358 14.2069 7.50379C14.2069 7.47981 14.2405 7.47381 14.2501 7.4906C14.3077 7.58175 14.3544 7.68129 14.4348 7.75924C14.4684 7.79282 14.5116 7.8264 14.5619 7.8264C14.6866 7.8264 14.7838 7.70168 14.8198 7.59494C14.8498 7.50379 14.8498 7.40425 14.827 7.30951C14.7802 7.12482 14.6363 6.95332 14.4348 6.94373C14.394 6.94373 14.3544 6.94373 14.3137 6.95332C14.3005 6.95692 14.183 6.9869 14.1865 7.00369C14.1734 6.65111 14.472 6.64511 14.737 6.75185C14.7298 6.46642 14.7946 6.15101 15.0117 5.95312C15.2299 6.15101 15.2935 6.46642 15.2863 6.75185C15.6257 6.53358 15.9543 6.76144 15.8871 7.15121C15.5118 6.56116 14.9205 7.44023 15.3331 7.77843C15.393 7.8192 15.4734 7.81921 15.5381 7.78563C15.6593 7.71487 15.7768 7.57095 15.8296 7.4906C15.8428 7.47021 15.8727 7.47741 15.8727 7.50379C15.8991 7.86238 16.0334 7.836 16.2013 7.85638C16.3824 7.87677 16.5671 7.56136 16.4424 7.4942C16.3548 7.44743 16.2745 7.51819 16.2349 7.56136C16.2217 7.57455 16.1977 7.56856 16.1941 7.54817C16.1678 7.42344 16.2313 7.29992 16.2313 7.29992C16.3321 7.11163 16.6367 7.25314 16.6367 7.25314C16.9221 6.6631 17.4522 7.0013 17.4522 7.0013H17.445H17.4486Z" fill="#F8DC4A"/>
<path d="M13.6836 8.56219C13.6836 8.90399 14.4487 8.94116 14.8313 8.94116H15.2439C15.6192 8.95076 16.4012 8.92437 16.4012 8.55859C15.9215 8.68332 14.3384 8.68572 13.6836 8.55859V8.56219Z" fill="#F8DC4A"/>
<path opacity="0.1" d="M23.2687 5.30859L5.69922 21.5816C5.97505 21.9198 6.27008 22.2424 6.58069 22.5495L24.1681 6.26082C23.8863 5.92742 23.5853 5.60961 23.2699 5.30859H23.2687Z" fill="white"/>
<path opacity="0.1" d="M25.076 7.48753L7.73438 23.5495C8.59426 24.2055 9.54649 24.7452 10.5671 25.1517L26.4599 10.4306C26.1325 9.37879 25.6624 8.39178 25.076 7.48633V7.48753Z" fill="white"/>
<path opacity="0.1" d="M19.3644 2.82346L3.51953 17.4991C3.86133 18.6228 4.36382 19.677 5.00064 20.634L22.377 4.53964C21.468 3.82966 20.4558 3.24921 19.3644 2.82227V2.82346Z" fill="white"/>
</g>
<defs>
<clipPath id="clip0_5797_11474">
<rect width="24" height="24" fill="white" transform="translate(3 2)"/>
</clipPath>
</defs>
</svg>
