<svg width="47" height="47" viewBox="0 0 47 47" fill="none" xmlns="http://www.w3.org/2000/svg">
<mask id="mask0_2535_5858" style="mask-type:luminance" maskUnits="userSpaceOnUse" x="6" y="6" width="34" height="34">
<path d="M34.57 34.5705C40.9341 28.2063 40.9341 17.8879 34.57 11.5238C28.2058 5.15962 17.8875 5.15962 11.5233 11.5238C5.15917 17.8879 5.15917 28.2063 11.5233 34.5705C17.8875 40.9346 28.2058 40.9346 34.57 34.5705Z" fill="white"/>
</mask>
<g mask="url(#mask0_2535_5858)">
<path d="M39.3429 6.75146H6.75098V39.3435H39.3429V6.75146Z" fill="#C9CBCC"/>
</g>
<mask id="mask1_2535_5858" style="mask-type:luminance" maskUnits="userSpaceOnUse" x="6" y="6" width="34" height="34">
<path d="M39.3429 6.75146H6.75098V39.3435H39.3429V6.75146Z" fill="white"/>
</mask>
<g mask="url(#mask1_2535_5858)">
<path d="M19.0208 19.6711C19.0208 19.2193 18.8869 18.7776 18.6359 18.402C18.3848 18.0263 18.0281 17.7335 17.6107 17.5606C17.1933 17.3877 16.734 17.3425 16.2908 17.4306C15.8477 17.5188 15.4407 17.7363 15.1212 18.0558C14.8017 18.3753 14.5842 18.7823 14.496 19.2254C14.4079 19.6685 14.4531 20.1278 14.626 20.5452C14.7989 20.9627 15.0917 21.3194 15.4674 21.5704C15.843 21.8214 16.2847 21.9554 16.7365 21.9554C17.3423 21.9554 17.9234 21.7147 18.3518 21.2863C18.7802 20.8579 19.0208 20.2769 19.0208 19.6711Z" fill="#515151"/>
<path d="M31.6405 19.7067C31.6405 19.2549 31.5065 18.8133 31.2555 18.4376C31.0045 18.0619 30.6477 17.7691 30.2303 17.5962C29.8129 17.4233 29.3536 17.3781 28.9105 17.4663C28.4674 17.5544 28.0603 17.772 27.7408 18.0914C27.4214 18.4109 27.2038 18.8179 27.1157 19.261C27.0275 19.7042 27.0728 20.1635 27.2457 20.5809C27.4186 20.9983 27.7113 21.3551 28.087 21.6061C28.4627 21.8571 28.9043 21.9911 29.3561 21.9911C29.962 21.9911 30.543 21.7504 30.9714 21.322C31.3998 20.8936 31.6405 20.3126 31.6405 19.7067Z" fill="#515151"/>
<path d="M29.3392 31.0528H16.7504C16.5586 31.0341 16.3806 30.9446 16.2511 30.8018C16.1215 30.659 16.0498 30.4731 16.0498 30.2803C16.0498 30.0875 16.1215 29.9017 16.2511 29.7589C16.3806 29.6161 16.5586 29.5266 16.7504 29.5078H29.3401C29.532 29.5266 29.71 29.6161 29.8395 29.7589C29.969 29.9017 30.0407 30.0875 30.0407 30.2803C30.0407 30.4731 29.969 30.659 29.8395 30.8018C29.71 30.9446 29.5311 31.0341 29.3392 31.0528Z" fill="#515151"/>
<path d="M19.548 15.8563H13.9247C13.7608 15.8563 13.6036 15.7912 13.4877 15.6753C13.3718 15.5594 13.3066 15.4021 13.3066 15.2382C13.3066 15.0743 13.3718 14.9171 13.4877 14.8012C13.6036 14.6852 13.7608 14.6201 13.9247 14.6201H19.548C19.7119 14.6201 19.8692 14.6852 19.9851 14.8012C20.101 14.9171 20.1661 15.0743 20.1661 15.2382C20.1661 15.4021 20.101 15.5594 19.9851 15.6753C19.8692 15.7912 19.7119 15.8563 19.548 15.8563Z" fill="#515151"/>
<path d="M32.1657 15.8563H26.5424C26.3785 15.8563 26.2213 15.7912 26.1053 15.6753C25.9894 15.5594 25.9243 15.4021 25.9243 15.2382C25.9243 15.0743 25.9894 14.9171 26.1053 14.8012C26.2213 14.6852 26.3785 14.6201 26.5424 14.6201H32.1657C32.3296 14.6201 32.4868 14.6852 32.6028 14.8012C32.7187 14.9171 32.7838 15.0743 32.7838 15.2382C32.7838 15.4021 32.7187 15.5594 32.6028 15.6753C32.4868 15.7912 32.3296 15.8563 32.1657 15.8563Z" fill="#515151"/>
</g>
</svg>
