<svg width="16" height="16" viewBox="0 0 16 16" fill="none" xmlns="http://www.w3.org/2000/svg">
<g clip-path="url(#clip0_2468_8353)">
<path d="M13.1451 8.88668C13.1451 10.1517 13.016 11.3882 12.882 12.5849C12.7629 13.6494 11.9106 14.5 10.8448 14.623C9.64051 14.7622 8.39609 14.8993 7.12286 14.8993C5.84961 14.8993 4.60519 14.7622 3.4009 14.623C2.33512 14.5 1.48277 13.6494 1.36367 12.5849C1.22978 11.3882 1.10059 10.1517 1.10059 8.88668C1.10059 7.62164 1.22978 6.3852 1.36367 5.18852C1.48277 4.12397 2.33512 3.27341 3.40089 3.15031C4.60519 3.01123 5.84961 2.87402 7.12286 2.87402C7.26824 2.87402 7.41325 2.87582 7.55788 2.87919" stroke="#111111" stroke-width="1.14" stroke-linecap="round" stroke-linejoin="round"/>
<path d="M11.4791 1.66669L7.38604 6.3035L6.82531 8.93656C6.73508 9.36023 7.17742 9.76111 7.59166 9.6311L10.2161 8.80734L14.4437 4.36599C15.1459 3.62833 15.0234 2.39455 14.1735 1.64399C13.3435 0.911003 12.1371 0.921168 11.4791 1.66669Z" stroke="#111111" stroke-width="1.14" stroke-linecap="round" stroke-linejoin="round"/>
</g>
<defs>
<clipPath id="clip0_2468_8353">
<rect width="16" height="16" fill="white"/>
</clipPath>
</defs>
</svg>
