<svg width="18" height="18" viewBox="0 0 18 18" fill="none" xmlns="http://www.w3.org/2000/svg">
<g clip-path="url(#clip0_3348_10881)">
<path fill-rule="evenodd" clip-rule="evenodd" d="M14.2791 20.3586C16.2479 19.4218 19.4657 17.8893 20.7707 17.2648C21.3188 17.0042 21.9454 16.9567 22.5265 17.1324C22.5389 17.1366 22.5513 17.1407 22.5616 17.1428L15.8863 21.2333C15.4355 20.8011 14.8789 20.5033 14.2791 20.3586ZM16.4174 21.8786L23.7879 17.3621C24.5138 16.9174 25.403 16.8802 26.1516 17.2318C25.8869 17.3331 25.6346 17.4737 25.4009 17.6557L16.9531 24.1823C16.9676 24.0479 16.9758 23.9135 16.9758 23.777C16.9758 23.0987 16.7794 22.4411 16.4174 21.8786ZM3.45109 34.8492C3.94742 35.4634 3.85435 36.363 3.24015 36.8613L-0.201024 39.6511C-0.815248 40.1474 -1.71483 40.0543 -2.21321 39.4401L-10.0035 29.8303C-10.4998 29.216 -10.4068 28.3165 -9.79257 27.8181L-6.35139 25.0283C-5.73717 24.532 -4.83759 24.6251 -4.3392 25.2393L3.45109 34.8492ZM-3.9792 33.4905L-4.52932 32.8122L-4.85193 33.0728L-4.30182 33.751L-3.9792 33.4905ZM-2.82112 34.9195L-3.37123 34.2412L-3.69177 34.5018L-3.14166 35.18L-2.82112 34.9195ZM-7.4576 29.2013L-8.00771 28.5209L-8.32825 28.7815L-7.77814 29.4597L-7.4576 29.2013ZM-5.13936 32.0593L-5.68947 31.381L-6.01001 31.6416L-5.4599 32.3198L-5.13936 32.0593ZM-0.502873 37.7796L-1.05299 37.1013L-1.37353 37.3618L-0.823417 38.0401L-0.502873 37.7796ZM-1.66096 36.3506L-2.21107 35.6702L-2.53368 35.9307L-1.98357 36.6111L-1.66096 36.3506ZM-6.29745 30.6303L-6.84756 29.952L-7.17017 30.2126L-6.62006 30.8908L-6.29745 30.6303ZM2.19167 12.5847C2.19167 12.0905 1.99521 11.6149 1.64363 11.2653L1.22589 10.8455C0.173258 9.79498 0.173258 8.08889 1.22589 7.03626L1.64363 6.61853C1.99519 6.26903 2.19167 5.79339 2.19167 5.29913V4.7056C2.19167 3.2187 3.3973 2.01307 4.88421 2.01307H5.47567C5.97199 2.01307 6.44555 1.81661 6.79713 1.46502L7.21487 1.04728C8.2675 -0.00534478 9.97358 -0.00534478 11.0241 1.04728L11.444 1.46502C11.7934 1.81658 12.2691 2.01307 12.7634 2.01307H13.3548C14.8438 2.01307 16.0494 3.2187 16.0494 4.7056V5.29913C16.0494 5.79338 16.2459 6.26901 16.5953 6.61853L17.0131 7.03626C18.0657 8.08889 18.0657 9.79498 17.0131 10.8455L16.5953 11.2653C16.2458 11.6148 16.0494 12.0905 16.0494 12.5847V13.1762C16.0494 14.6652 14.8438 15.8708 13.3548 15.8708H12.7634C12.2691 15.8708 11.7935 16.0673 11.444 16.4167L11.0241 16.8365C9.97358 17.8871 8.2675 17.8871 7.21487 16.8365L6.79713 16.4167C6.44557 16.0672 5.97199 15.8708 5.47567 15.8708H4.88421C3.3973 15.8708 2.19167 14.6652 2.19167 13.1762V12.5847ZM6.86537 11.7803L11.9589 6.68678C12.1202 6.52548 12.1202 6.26284 11.9589 6.10152C11.7976 5.94021 11.537 5.94021 11.3736 6.10152L6.28011 11.1971C6.1188 11.3584 6.1188 11.619 6.28011 11.7803C6.44141 11.9416 6.70405 11.9416 6.86537 11.7803ZM11.3405 12.531C12.0954 12.531 12.7095 11.9168 12.7095 11.162C12.7095 10.4092 12.0953 9.79507 11.3405 9.79507C10.5878 9.79507 9.9736 10.4093 9.9736 11.162C9.9736 11.9168 10.5878 12.531 11.3405 12.531ZM11.3405 11.7038C11.0427 11.7038 10.8008 11.4619 10.8008 11.162C10.8008 10.8642 11.0428 10.6223 11.3405 10.6223C11.6404 10.6223 11.8823 10.8642 11.8823 11.162C11.8823 11.4619 11.6404 11.7038 11.3405 11.7038ZM6.8902 5.34451C6.13537 5.34451 5.52326 5.95662 5.52326 6.71145C5.52326 7.46629 6.13537 8.0784 6.8902 8.0784C7.64504 8.0784 8.25714 7.46629 8.25714 6.71145C8.25714 5.95662 7.64504 5.34451 6.8902 5.34451ZM6.8902 6.17172C7.188 6.17172 7.42994 6.41368 7.42994 6.71145C7.42994 7.00923 7.18798 7.25119 6.8902 7.25119C6.59242 7.25119 6.35047 7.00923 6.35047 6.71145C6.35047 6.41368 6.59242 6.17172 6.8902 6.17172ZM-3.6668 24.7551L-0.343522 21.9633C0.326502 21.3988 1.17647 21.0886 2.05122 21.0886H13.4606C14.1741 21.0886 14.8565 21.3719 15.3611 21.8765C15.8656 22.3811 16.149 23.0636 16.149 23.777C16.149 23.9548 16.1324 24.1306 16.0973 24.3023C16.0394 24.5939 15.7829 24.8048 15.4831 24.8048C13.3861 24.811 4.81011 24.811 4.81011 24.811C4.58263 24.811 4.39651 24.9951 4.39651 25.2246C4.39651 25.4521 4.58263 25.6382 4.81011 25.6382H15.4026H15.4005C15.4005 25.6382 16.0002 25.6361 16.0085 25.632C16.3187 25.603 16.6165 25.4872 16.8647 25.297L25.906 18.3093C26.82 17.6041 28.127 17.7488 28.8653 18.634L28.8694 18.6402C29.5704 19.4818 29.525 20.7165 28.7619 21.5044L18.9947 31.5944C18.3474 32.2624 17.4768 32.6657 16.5483 32.7256L5.30251 33.4515C4.93647 33.4743 4.58696 33.619 4.314 33.863L3.96657 34.1712L-3.6668 24.7551Z" fill="#0F172A"/>
</g>
<defs>
<clipPath id="clip0_3348_10881">
<rect width="18" height="18" fill="white"/>
</clipPath>
</defs>
</svg>
