<svg width="62" height="62" viewBox="0 0 62 62" fill="none" xmlns="http://www.w3.org/2000/svg">
<circle cx="31" cy="31" r="31" fill="#FFF4CA"/>
<rect x="15" y="15" width="32" height="32" rx="16" fill="#FFC727"/>
<path d="M33.4296 39.0625H28.5696C27.1521 39.0625 26.1171 38.47 25.7196 37.45C25.3071 36.385 25.6896 35.065 26.6796 34.1725L30.1596 31L26.6796 27.8275C25.6896 26.935 25.3071 25.615 25.7196 24.55C26.1171 23.5225 27.1521 22.9375 28.5696 22.9375H33.4296C34.8471 22.9375 35.8821 23.53 36.2796 24.55C36.6921 25.615 36.3096 26.935 35.3196 27.8275L31.8396 31L35.3271 34.1725C36.3096 35.065 36.6996 36.385 36.2871 37.45C35.8821 38.47 34.8471 39.0625 33.4296 39.0625ZM30.9996 31.7575L27.4371 34.9975C26.8071 35.575 26.5296 36.415 26.7696 37.0375C26.9946 37.615 27.6321 37.9375 28.5696 37.9375H33.4296C34.3671 37.9375 35.0046 37.6225 35.2296 37.0375C35.4696 36.415 35.1996 35.575 34.5621 34.9975L30.9996 31.7575ZM28.5696 24.0625C27.6321 24.0625 26.9946 24.3775 26.7696 24.9625C26.5296 25.585 26.7996 26.425 27.4371 27.0025L30.9996 30.2425L34.5621 27.0025C35.1921 26.425 35.4696 25.585 35.2296 24.9625C35.0046 24.385 34.3671 24.0625 33.4296 24.0625H28.5696Z" fill="black"/>
</svg>
