<svg width="24" height="24" viewBox="0 0 24 24" fill="none" xmlns="http://www.w3.org/2000/svg">
<g clip-path="url(#clip0_2273_4549)">
<path d="M8.5 10.2856H15.5" stroke="#111111" stroke-width="1.5" stroke-linecap="round" stroke-linejoin="round"/>
<path d="M8.5 13.0352H15.5" stroke="#111111" stroke-width="1.5" stroke-linecap="round" stroke-linejoin="round"/>
<path d="M11.5 10.2854C12.1667 10.4521 13.5 11.0354 13.5 12.7854C13.5 15.7854 9.5 15.7854 9.5 15.7854C9.5 15.7854 11.5 17.5355 14.5 18.2855" stroke="#111111" stroke-width="1.5" stroke-linecap="round" stroke-linejoin="round"/>
<path d="M12.0006 23.1426C18.0006 23.1426 22.2863 21.0202 22.2863 16.296C22.2863 11.1611 19.7148 7.73777 14.572 5.1703L16.5948 2.56858C16.6976 2.39789 16.7533 2.20309 16.7564 2.00395C16.7595 1.8048 16.7098 1.60839 16.6123 1.43461C16.5148 1.26084 16.3731 1.11588 16.2014 1.01443C16.0298 0.912979 15.8343 0.858644 15.6348 0.856934H8.36627C8.1668 0.858644 7.97134 0.912979 7.79968 1.01443C7.62802 1.11588 7.48628 1.26084 7.38882 1.43461C7.29135 1.60839 7.24163 1.8048 7.2447 2.00395C7.24777 2.20309 7.3035 2.39789 7.40627 2.56858L9.42913 5.18741C4.28627 7.772 1.71484 11.1953 1.71484 16.3303C1.71484 21.0202 6.00056 23.1426 12.0006 23.1426Z" stroke="#111111" stroke-width="1.5" stroke-linecap="round" stroke-linejoin="round"/>
</g>
<defs>
<clipPath id="clip0_2273_4549">
<rect width="24" height="24" fill="white"/>
</clipPath>
</defs>
</svg>
