<svg width="18" height="18" viewBox="0 0 18 18" fill="none" xmlns="http://www.w3.org/2000/svg">
<path d="M15.75 4.5C15.75 5.74264 14.7427 6.75 13.5 6.75C12.2573 6.75 11.25 5.74264 11.25 4.5C11.25 3.25736 12.2573 2.25 13.5 2.25C14.7427 2.25 15.75 3.25736 15.75 4.5Z" stroke="#141B34" stroke-width="1.13"/>
<path d="M15.75 13.5C15.75 14.7427 14.7427 15.75 13.5 15.75C12.2573 15.75 11.25 14.7427 11.25 13.5C11.25 12.2573 12.2573 11.25 13.5 11.25C14.7427 11.25 15.75 12.2573 15.75 13.5Z" stroke="#141B34" stroke-width="1.13"/>
<path d="M11.25 6L2.25 14.25" stroke="#141B34" stroke-width="1.13" stroke-linecap="round" stroke-linejoin="round"/>
<path d="M11.2502 12L8.25 9" stroke="#141B34" stroke-width="1.13" stroke-linecap="round" stroke-linejoin="round"/>
<path d="M2.25 3.75L6.375 7.49992" stroke="#141B34" stroke-width="1.13" stroke-linecap="round" stroke-linejoin="round"/>
</svg>
