<svg width="18" height="17" viewBox="0 0 18 17" fill="none" xmlns="http://www.w3.org/2000/svg">
<path d="M7.0791 1.91085C7.58202 0.363053 9.77174 0.363052 10.2747 1.91085L10.9939 4.12435C11.2188 4.81655 11.8638 5.2852 12.5916 5.2852H14.919C16.5465 5.2852 17.2232 7.36776 15.9065 8.32435L14.0236 9.69237C13.4348 10.1202 13.1884 10.8785 13.4133 11.5707L14.1325 13.7842C14.6354 15.332 12.8639 16.6191 11.5473 15.6625L9.66436 14.2944C9.07554 13.8666 8.27822 13.8666 7.6894 14.2944L5.80649 15.6625C4.48985 16.6191 2.71832 15.332 3.22123 13.7842L3.94044 11.5707C4.16535 10.8785 3.91896 10.1202 3.33015 9.69237L1.44723 8.32435C0.130593 7.36776 0.807256 5.2852 2.43471 5.2852H4.76212C5.48994 5.2852 6.13499 4.81655 6.3599 4.12435L7.0791 1.91085Z" fill="#F6C92D" stroke="#F6C92D" stroke-width="1.5"/>
</svg>
