<svg width="24" height="24" viewBox="0 0 24 24" fill="none" xmlns="http://www.w3.org/2000/svg">
<path d="M18.9091 3.82541H18.1818V3.09524C18.1818 2.49104 17.6927 2 17.0909 2H5.09092C4.4891 2 4 2.49104 4 3.09524V19.5238C4 20.128 4.4891 20.619 5.09092 20.619H5.81819V21.3492C5.81819 21.9534 6.3073 22.4444 6.90911 22.4444H18.9091C19.5109 22.4444 20 21.9534 20 21.3492V4.92065C20 4.31645 19.5109 3.82541 18.9091 3.82541ZM19.2727 21.3493C19.2727 21.551 19.11 21.7144 18.9091 21.7144H6.90911C6.7082 21.7144 6.54547 21.551 6.54547 21.3493V20.2541C6.54547 20.0524 6.38274 19.889 6.18183 19.889H5.09092C4.89001 19.889 4.72728 19.7256 4.72728 19.5239V3.09536C4.72728 2.89365 4.89001 2.73028 5.09092 2.73028H17.0909C17.2918 2.73028 17.4545 2.89365 17.4545 3.09536V3.82552H10.5453C7.93894 3.82552 5.81808 5.95487 5.81808 8.57147V18.4288C5.82626 18.9043 6.53626 18.9125 6.54536 18.4288V9.30186C6.54536 8.49686 7.19809 7.84154 7.99991 7.84154H8.72719C9.329 7.84154 9.81811 7.35049 9.81811 6.74629V6.01613C9.81811 5.21113 10.4708 4.5558 11.2727 4.5558H18.909C19.1099 4.5558 19.2726 4.71918 19.2726 4.92088L19.2727 21.3493ZM9.54093 4.68875C9.07275 5.2373 9.06728 6.04412 9.09092 6.74599C9.09092 6.9477 8.92819 7.11107 8.72728 7.11107H8.00001C7.50273 7.11107 7.04544 7.28083 6.67817 7.56286C7.04181 6.15912 8.14269 5.05395 9.54093 4.68875Z" fill="#111111"/>
<path d="M17.4545 19.188C17.2536 19.188 17.0909 19.3514 17.0909 19.5531V19.889H13.4545V16.2382H15.9745C16.4518 16.2318 16.4527 15.5153 15.9745 15.508H13.0907C12.8898 15.508 12.7271 15.6714 12.7271 15.8731V20.2541C12.7271 20.4558 12.8898 20.6192 13.0907 20.6192H17.4544C17.6553 20.6192 17.818 20.4558 17.818 20.2541V19.5531C17.818 19.3514 17.6554 19.188 17.4545 19.188Z" fill="#111111"/>
<path d="M17.5609 16.3452L15.6363 18.2774L14.8027 17.4404C14.4663 17.1046 13.9527 17.6175 14.2882 17.957L15.3791 19.0523C15.5209 19.1946 15.7509 19.1946 15.8936 19.0523L18.0754 16.8618C18.4091 16.5241 17.9 16.0084 17.5609 16.3452Z" fill="#111111"/>
<path d="M17.818 8.93678H9.81799C9.34253 8.94408 9.33799 9.65872 9.81799 9.66694H17.818C18.2935 9.65964 18.2981 8.945 17.818 8.93678Z" fill="#111111"/>
<path d="M17.818 11.127H11.9998C11.5235 11.1343 11.5207 11.849 11.9998 11.8572H17.818C18.2944 11.8499 18.2971 11.1353 17.818 11.127Z" fill="#111111"/>
<path d="M7.99968 11.8574H10.1815C10.6588 11.8501 10.6597 11.1355 10.1815 11.1273H7.99968C7.5224 11.1346 7.52149 11.8492 7.99968 11.8574Z" fill="#111111"/>
<path d="M17.818 13.3178H15.6362C15.1589 13.3251 15.158 14.0397 15.6362 14.0479H17.818C18.2953 14.0406 18.2962 13.326 17.818 13.3178Z" fill="#111111"/>
<path d="M14.1817 13.6827C14.1817 13.481 14.0189 13.3176 13.818 13.3176H7.9998C7.79889 13.3176 7.63616 13.481 7.63616 13.6827C7.63616 13.8844 7.79889 14.0478 7.9998 14.0478H13.818C14.0189 14.0478 14.1817 13.8844 14.1817 13.6827Z" fill="#111111"/>
</svg>
