<svg width="47" height="47" viewBox="0 0 47 47" fill="none" xmlns="http://www.w3.org/2000/svg">
<mask id="mask0_2535_5873" style="mask-type:luminance" maskUnits="userSpaceOnUse" x="6" y="6" width="34" height="34">
<path d="M34.57 34.5702C40.9341 28.2061 40.9341 17.8877 34.57 11.5235C28.2058 5.15936 17.8875 5.15936 11.5233 11.5235C5.15917 17.8877 5.15917 28.2061 11.5233 34.5702C17.8875 40.9344 28.2058 40.9344 34.57 34.5702Z" fill="white"/>
</mask>
<g mask="url(#mask0_2535_5873)">
<path d="M6.75 6.75024H39.3419V39.3423H6.75V6.75024Z" fill="#C9CBCC"/>
</g>
<mask id="mask1_2535_5873" style="mask-type:luminance" maskUnits="userSpaceOnUse" x="6" y="6" width="34" height="34">
<path d="M39.3419 6.75H6.75V39.342H39.3419V6.75Z" fill="white"/>
</mask>
<g mask="url(#mask1_2535_5873)">
<path d="M13.5852 15.9276C14.6159 16.4113 15.7327 16.6847 16.8703 16.7316C18.0079 16.7785 19.1435 16.5982 20.2105 16.201C20.2974 16.1766 20.3782 16.1345 20.448 16.0772C20.5177 16.02 20.5749 15.949 20.6158 15.8686C20.6568 15.7882 20.6806 15.7002 20.6859 15.6102C20.6911 15.5201 20.6776 15.4299 20.6463 15.3453C20.5637 15.1977 20.4299 15.0854 20.2703 15.0296C20.1106 14.9737 19.936 14.9781 19.7794 15.042C18.8659 15.3824 17.8937 15.5371 16.9196 15.4971C15.9456 15.457 14.9893 15.223 14.1068 14.8088C13.956 14.732 13.7823 14.7131 13.6185 14.7556C13.4547 14.798 13.3121 14.8989 13.2175 15.0392C13.1794 15.121 13.1586 15.2097 13.1564 15.2999C13.1543 15.39 13.1708 15.4796 13.205 15.5631C13.2392 15.6465 13.2903 15.722 13.3551 15.7847C13.4199 15.8475 13.4969 15.8961 13.5815 15.9276" fill="#515151"/>
<path d="M19.2147 19.7162C19.2147 19.2644 19.0807 18.8228 18.8297 18.4471C18.5787 18.0715 18.2219 17.7787 17.8045 17.6058C17.3871 17.4329 16.9278 17.3876 16.4847 17.4758C16.0416 17.5639 15.6345 17.7815 15.3151 18.101C14.9956 18.4204 14.778 18.8275 14.6899 19.2706C14.6017 19.7137 14.647 20.173 14.8199 20.5904C14.9928 21.0078 15.2856 21.3646 15.6612 21.6156C16.0369 21.8666 16.4785 22.0006 16.9303 22.0006C17.5362 22.0006 18.1172 21.7599 18.5456 21.3315C18.974 20.9031 19.2147 20.3221 19.2147 19.7162Z" fill="#515151"/>
<path d="M33.2536 15.9276C32.2229 16.4113 31.1061 16.6847 29.9685 16.7316C28.8309 16.7785 27.6954 16.5982 26.6283 16.201C26.5415 16.1766 26.4606 16.1345 26.3908 16.0772C26.3211 16.02 26.2639 15.949 26.223 15.8686C26.1821 15.7882 26.1582 15.7002 26.153 15.6102C26.1477 15.5201 26.1612 15.4299 26.1925 15.3453C26.2752 15.1977 26.4089 15.0854 26.5686 15.0296C26.7282 14.9737 26.9028 14.9781 27.0594 15.042C27.9729 15.3825 28.9452 15.5372 29.9192 15.4972C30.8933 15.4571 31.8495 15.2231 32.732 14.8088C32.8828 14.732 33.0565 14.7131 33.2203 14.7556C33.3841 14.798 33.5267 14.8989 33.6213 15.0392C33.6594 15.121 33.6802 15.2097 33.6824 15.2999C33.6845 15.39 33.668 15.4796 33.6338 15.5631C33.5996 15.6465 33.5485 15.722 33.4837 15.7847C33.419 15.8475 33.3419 15.8961 33.2574 15.9276" fill="#515151"/>
<path d="M27.6274 19.7162C27.6274 19.2644 27.7614 18.8228 28.0124 18.4471C28.2634 18.0715 28.6202 17.7787 29.0376 17.6058C29.455 17.4329 29.9143 17.3876 30.3574 17.4758C30.8006 17.5639 31.2076 17.7815 31.527 18.101C31.8465 18.4204 32.0641 18.8275 32.1522 19.2706C32.2404 19.7137 32.1951 20.173 32.0222 20.5904C31.8493 21.0078 31.5566 21.3646 31.1809 21.6156C30.8052 21.8666 30.3636 22.0006 29.9118 22.0006C29.3059 22.0006 28.7249 21.7599 28.2965 21.3315C27.8681 20.9031 27.6274 20.3221 27.6274 19.7162Z" fill="#515151"/>
<path d="M30.631 31.9942C30.631 28.6796 27.4014 25.9922 23.4178 25.9922C19.4342 25.9922 16.2046 28.6796 16.2046 31.9942H30.631Z" fill="#515151"/>
</g>
</svg>
