<svg width="47" height="47" viewBox="0 0 47 47" fill="none" xmlns="http://www.w3.org/2000/svg">
<mask id="mask0_2535_5757" style="mask-type:luminance" maskUnits="userSpaceOnUse" x="6" y="6" width="34" height="34">
<path d="M34.57 34.5702C40.9341 28.2061 40.9341 17.8877 34.57 11.5235C28.2058 5.15936 17.8875 5.15936 11.5233 11.5235C5.15917 17.8877 5.15917 28.2061 11.5233 34.5702C17.8875 40.9344 28.2058 40.9344 34.57 34.5702Z" fill="white"/>
</mask>
<g mask="url(#mask0_2535_5757)">
<path d="M6.75 6.75024H39.3419V39.3423H6.75V6.75024Z" fill="#FF0000"/>
</g>
<mask id="mask1_2535_5757" style="mask-type:luminance" maskUnits="userSpaceOnUse" x="6" y="6" width="34" height="34">
<path d="M39.3419 6.75H6.75V39.342H39.3419V6.75Z" fill="white"/>
</mask>
<g mask="url(#mask1_2535_5757)">
<path d="M19.2147 19.7162C19.2147 19.2644 19.0807 18.8228 18.8297 18.4471C18.5787 18.0715 18.2219 17.7787 17.8045 17.6058C17.3871 17.4329 16.9278 17.3876 16.4847 17.4758C16.0416 17.5639 15.6345 17.7815 15.3151 18.101C14.9956 18.4204 14.778 18.8275 14.6899 19.2706C14.6017 19.7137 14.647 20.173 14.8199 20.5904C14.9928 21.0078 15.2856 21.3646 15.6612 21.6156C16.0369 21.8666 16.4785 22.0006 16.9303 22.0006C17.5362 22.0006 18.1172 21.7599 18.5456 21.3315C18.974 20.9031 19.2147 20.3221 19.2147 19.7162Z" fill="white"/>
<path d="M27.6274 19.7162C27.6274 19.2644 27.7614 18.8228 28.0124 18.4471C28.2634 18.0715 28.6202 17.7787 29.0376 17.6058C29.455 17.4329 29.9143 17.3876 30.3574 17.4758C30.8006 17.5639 31.2076 17.7815 31.527 18.101C31.8465 18.4204 32.0641 18.8275 32.1522 19.2706C32.2404 19.7137 32.1951 20.173 32.0222 20.5904C31.8493 21.0078 31.5566 21.3646 31.1809 21.6156C30.8052 21.8666 30.3636 22.0006 29.9118 22.0006C29.3059 22.0006 28.7249 21.7599 28.2965 21.3315C27.8681 20.9031 27.6274 20.3221 27.6274 19.7162Z" fill="white"/>
<path d="M30.631 31.9942C30.631 28.6796 27.4014 25.9922 23.4178 25.9922C19.4342 25.9922 16.2046 28.6796 16.2046 31.9942H30.631Z" fill="white"/>
</g>
</svg>
